<?xml version="1.0" encoding="UTF-8" standalone="no"?>
<svg
   id="svg2321"
   version="1.1"
   viewBox="0 0 32 32"
   height="32"
   width="32"
   xmlns="http://www.w3.org/2000/svg"
   xmlns:svg="http://www.w3.org/2000/svg"
   xmlns:rdf="http://www.w3.org/1999/02/22-rdf-syntax-ns#"
   xmlns:cc="http://creativecommons.org/ns#">
  <defs
     id="defs2315" />
  <metadata
     id="metadata2318">
    <rdf:RDF>
      <cc:Work
         rdf:about="" />
    </rdf:RDF>
  </metadata>
  <g
     transform="translate(-32.430742,-116.62322)"
     id="layer1"
     style="display:inline">
    <g
       id="g1"
       transform="matrix(1.0207482,0,0,1.0209785,-1.9916026,-2.7157198)"
       style="stroke-width:0.979563">
      <path
         id="path3031-2-2-9"
         style="color:#000000;font-style:normal;font-variant:normal;font-weight:normal;font-stretch:normal;font-size:medium;line-height:normal;font-family:sans-serif;font-variant-ligatures:normal;font-variant-position:normal;font-variant-caps:normal;font-variant-numeric:normal;font-variant-alternates:normal;font-variant-east-asian:normal;font-feature-settings:normal;font-variation-settings:normal;text-indent:0;text-align:start;text-decoration:none;text-decoration-line:none;text-decoration-style:solid;text-decoration-color:#000000;letter-spacing:normal;word-spacing:normal;text-transform:none;writing-mode:lr-tb;direction:ltr;text-orientation:mixed;dominant-baseline:auto;baseline-shift:baseline;text-anchor:start;white-space:normal;shape-padding:0;shape-margin:0;inline-size:0;clip-rule:nonzero;display:inline;overflow:visible;visibility:visible;opacity:1;isolation:auto;mix-blend-mode:normal;color-interpolation:sRGB;color-interpolation-filters:linearRGB;solid-color:#000000;solid-opacity:1;fill:none;fill-opacity:1;fill-rule:nonzero;stroke:#ffffff;stroke-width:2.05847;stroke-linecap:butt;stroke-linejoin:miter;stroke-miterlimit:4;stroke-dasharray:none;stroke-dashoffset:0;stroke-opacity:1;color-rendering:auto;image-rendering:auto;shape-rendering:auto;text-rendering:auto;enable-background:accumulate;stop-color:#000000;stop-opacity:1"
         d="m 52.850554,121.53041 c -1.23424,1.21154 -1.613529,2.29796 -1.388034,3.64936 l 0.06153,0.37098 -0.371344,-0.0583 c -2.729454,-0.42575 -6.10312,-0.1831 -9.934027,1.39112 1.131566,0.47703 3.208032,1.272 5.513487,2.36197 l 0.731073,0.34586 -0.791351,0.16608 c -3.032375,0.6324 -6.624573,2.42955 -9.892603,6.32496 1.471237,-0.1231 4.477559,-0.49392 7.615116,-0.50726 1.744122,-0.006 3.463609,0.10317 4.86599,0.45795 1.4024,0.35468 2.679866,1.17757 2.862694,1.78493 0.182687,0.60733 0.08296,0.92821 -0.09099,1.40511 -0.173907,0.47687 -0.713037,1.20295 -1.46178,1.68456 -0.748683,0.48182 -1.69984,0.90423 -2.688463,1.26449 -3.57842,1.304 -4.022962,1.33073 -5.365847,1.50644 -0.02166,0.48429 -0.02615,0.72571 0.0068,1.16552 4.587319,0.76397 9.432209,-0.54093 13.746529,-2.23626 3.644275,-1.69522 5.934645,-5.01461 6.418845,-7.99401 0.303447,-1.86683 0.230802,-2.78042 -0.07658,-3.55714 -0.307434,-0.77664 -0.892258,-1.46453 -1.636572,-2.7803 -0.478332,-0.84556 -0.747208,-1.67634 -0.915398,-2.45054 l -0.03565,-0.16275 0.129778,-0.10537 c 1.347588,-1.09234 2.443277,-2.28281 2.838579,-3.14714 -0.826322,-0.86811 -2.246609,-1.04435 -3.833469,-0.86549 l -0.129846,0.0156 -0.09247,-0.0931 c -0.851081,-0.85635 -1.903799,-1.29179 -2.976399,-1.29168 -1.0726,1e-4 -2.169779,0.43221 -3.109558,1.35441 z" />
      <path
         id="rect1"
         style="color:#000000;display:none;opacity:1;fill:#ffffff;fill-opacity:1;stroke-width:0.979563;stroke-linecap:square;stroke-linejoin:round;-inkscape-stroke:none;paint-order:markers stroke fill"
         d="m 34.151445,117.30291 a 1.0506051,1.0506051 0 0 0 -1.001953,1.05078 v 18.16406 l 1.712891,-2.04101 c 0.127679,-0.15219 0.257797,-0.29486 0.386718,-0.44141 V 120.049 l 7.429688,3.69141 c 1.183733,-0.32974 2.323831,-0.53566 3.421875,-0.64844 L 34.66707,117.41228 a 1.0506051,1.0506051 0 0 0 -0.515625,-0.10937 z m 14.601563,21.19336 -4.107422,2.04101 c 0.755518,-0.19006 1.597888,-0.42828 2.378906,-0.71289 0.882627,-0.32164 1.693854,-0.69933 2.191406,-1.01953 h 0.002 c 0.04267,-0.0275 0.0349,-0.0294 0.08008,-0.0762 -0.18696,-0.0833 -0.355342,-0.16914 -0.544922,-0.23242 z m -13.503907,0.22265 -2.099609,0.17578 v 8.00586 a 1.0506051,1.0506051 0 0 0 1.517578,0.93946 l 5.345703,-2.65625 c -0.08471,-0.35152 -0.124854,-0.69721 -0.11914,-0.97266 v -0.002 c 0.0092,-0.43133 0.02593,-0.85315 0.30664,-1.46485 l -4.951172,2.46094 z" />
      <circle
         style="display:inline;fill:#ffffff;fill-opacity:1;stroke:none;stroke-width:3.33051;stroke-linecap:square;stroke-linejoin:round;paint-order:fill markers stroke"
         id="path1"
         cx="56.434395"
         cy="123.17155"
         r="1.32099" />
    </g>
  </g>
</svg>
